<?xml version="1.0" encoding="utf-8"?>
<!-- Generator: Adobe Illustrator 18.1.1, SVG Export Plug-In . SVG Version: 6.00 Build 0)  -->
<!DOCTYPE svg PUBLIC "-//W3C//DTD SVG 1.1//EN" "http://www.w3.org/Graphics/SVG/1.1/DTD/svg11.dtd">
<svg version="1.1"
	 id="Layer_1" xmlns:svg="http://www.w3.org/2000/svg" xmlns:sodipodi="http://sodipodi.sourceforge.net/DTD/sodipodi-0.dtd" xmlns:inkscape="http://www.inkscape.org/namespaces/inkscape" xmlns:cc="http://creativecommons.org/ns#" xmlns:dc="http://purl.org/dc/elements/1.1/" xmlns:rdf="http://www.w3.org/1999/02/22-rdf-syntax-ns#" inkscape:version="0.48.5 r10040" sodipodi:docname="gateblu.svg"
	 xmlns="http://www.w3.org/2000/svg" xmlns:xlink="http://www.w3.org/1999/xlink" x="0px" y="0px" viewBox="-44 46 700 700"
	 enable-background="new -44 46 700 700" xml:space="preserve">
<sodipodi:namedview  id="namedview35" showgrid="false" guidetolerance="10" inkscape:cx="213.54062" inkscape:zoom="2.1641753" gridtolerance="10" inkscape:cy="8.0307469" bordercolor="#666666" objecttolerance="10" pagecolor="#ffffff" borderopacity="1" inkscape:window-width="1926" inkscape:window-height="1045" inkscape:window-maximized="0" inkscape:window-y="0" inkscape:pageopacity="0" inkscape:window-x="0" inkscape:pageshadow="2" inkscape:current-layer="Layer_1" fit-margin-right="0" fit-margin-bottom="0" fit-margin-left="0" fit-margin-top="0">
	</sodipodi:namedview>
<g id="g3" transform="translate(-174.75378,-131.15046)">
	
		<path id="path19" inkscape:connector-curvature="0" fill="#003B71" stroke="#003B71" stroke-width="0.6907" stroke-miterlimit="10" d="
		M529.2,496.8c0,0-27.5-17.3,79.5-84.5c106.9-66.5,77.3-64.3,68.6-116.3c0,0,34,33.2-83.8,93.2C475.7,449.8,523.4,464.3,529.2,496.8
		L529.2,496.8z"/>
	
		<path id="path21" inkscape:connector-curvature="0" fill="#003B71" stroke="#003B71" stroke-width="0.6907" stroke-miterlimit="10" d="
		M537.8,545.2c0,0-7.2-31.8,115.6-4.3c122.8,27.5,99.7,8.7,130.8-34c0,0,0.7,47.7-125,7.2C533.5,474.4,556.6,518.5,537.8,545.2z"/>
	
		<path id="path23" inkscape:connector-curvature="0" fill="#003B71" stroke="#003B71" stroke-width="0.6907" stroke-miterlimit="10" d="
		M496.7,587.1c0,0,18.1-26.7,81.7,81.7s62.1,78.8,114.2,72.3c0,0-34,32.5-91.1-86.7C545.1,535.1,529.2,582.1,496.7,587.1z"/>
	
		<path id="path25" inkscape:connector-curvature="0" fill="#003B71" stroke="#003B71" stroke-width="0.6907" stroke-miterlimit="10" d="
		M437.4,581.4c0,0,31.8-4.3-5.8,115.6c-38.3,120-17.3,99,22.4,133c0,0-47-3.6,3.6-125S462.7,602.3,437.4,581.4L437.4,581.4z"/>
	
		<path id="path27" inkscape:connector-curvature="0" fill="#003B71" stroke="#003B71" stroke-width="0.6907" stroke-miterlimit="10" d="
		M208.3,690.5c0,0-18.8-26,104.8-49.9c123.6-23.8,94.7-32.5,106.2-83.8c0,0,19.5,43.4-112,57.1C176.5,626.9,214.8,658,208.3,690.5z"
		/>
	
		<path id="path29" inkscape:connector-curvature="0" fill="#003B71" stroke="#003B71" stroke-width="0.6907" stroke-miterlimit="10" d="
		M177.3,509.8c0,0-2.9-32.5,115.6,9.4s98.3,20.2,133.7-18.8c0,0-5.1,47-125-7.2C180.9,439,198.9,485.3,177.3,509.8z"/>
	
		<path id="path31" inkscape:connector-curvature="0" fill="#77BC1F" stroke="#77BC1F" stroke-width="0.6907" stroke-miterlimit="10" d="
		M276.3,304.6c0,0,20.2-25.3,75.2,88.2c54.2,113.5,55.6,83.8,107.7,80.9c0,0-36.9,29.6-83.8-93.9C329,257.6,308.8,303.2,276.3,304.6
		L276.3,304.6z"/>
	
		<path id="path33" inkscape:connector-curvature="0" fill="#003B71" stroke="#003B71" stroke-width="0.6907" stroke-miterlimit="10" d="
		M467,224.4c0,0,31.8-5.1-2.9,115.6c-34.7,120.7-14.5,99,26.7,132.2c0,0-47.7-2.2,0-125C537.8,223.7,492.3,244.6,467,224.4z"/>
</g>
</svg>
